<svg xmlns="http://www.w3.org/2000/svg" xmlns:xlink="http://www.w3.org/1999/xlink" version="1.1" x="0px" y="0px" viewBox="0 0 100 125" style="enable-background:new 0 0 100 100;" xml:space="preserve"><g><path d="M59.5,36c0-5-4.1-9.1-9.1-9.1c-5,0-9,4.1-9,9.1c0,5,4.1,9.1,9,9.1C55.4,45.1,59.5,41,59.5,36z M43.4,36   c0-3.9,3.2-7.1,7-7.1c3.9,0,7.1,3.2,7.1,7.1c0,3.9-3.2,7.1-7.1,7.1C46.5,43.1,43.4,39.9,43.4,36z"/><path d="M50.4,74.7c0.3,0,0.6-0.1,0.8-0.3c0.9-1,22.8-25.7,22.8-38.4c0-13-10.6-23.5-23.5-23.5c-13,0-23.5,10.6-23.5,23.5   c0,12.7,21.9,37.3,22.8,38.4C49.9,74.6,50.1,74.7,50.4,74.7z M50.4,14.5c11.9,0,21.5,9.7,21.5,21.5c0,10.7-17.7,31.7-21.5,36.2   C46.5,67.7,28.9,46.7,28.9,36C28.9,24.1,38.5,14.5,50.4,14.5z"/><path d="M50.4,78.3c-2.7,0-25.9,0.1-25.9,5.2c0,5,23.3,5.2,25.9,5.2c2.7,0,25.9-0.1,25.9-5.2C76.3,78.4,53.1,78.3,50.4,78.3z    M50.4,86.6c-15.1,0-22.9-2-23.9-3.2c0.9-1.1,8.8-3.2,23.9-3.2c15.1,0,22.9,2,23.9,3.2C73.3,84.6,65.5,86.6,50.4,86.6z"/></g><text x="0" y="115" fill="#000000" font-size="5px" font-weight="bold" font-family="'Helvetica Neue', Helvetica, Arial-Unicode, Arial, Sans-serif">Created by April Yang</text><text x="0" y="120" fill="#000000" font-size="5px" font-weight="bold" font-family="'Helvetica Neue', Helvetica, Arial-Unicode, Arial, Sans-serif">from the Noun Project</text></svg>