<svg xmlns="http://www.w3.org/2000/svg" viewBox="0 0 64 80" x="0px" y="0px"><g data-name="Home Work"><path d="M56.55,19V15.46a1,1,0,0,0-1-1h-.94l2.2-2.2a4.16,4.16,0,0,0-5.89-5.89l-8.1,8.09H36.55a5.73,5.73,0,0,0-4.12,1.77,6.26,6.26,0,0,0-.46.59,5.56,5.56,0,0,0-4.54-2.36h-19a1,1,0,0,0-1,1V19A5.45,5.45,0,0,0,3,24.29V48.5A10.35,10.35,0,0,0,13.33,58.85H50.67A10.36,10.36,0,0,0,61,48.5V24.29A5.46,5.46,0,0,0,56.55,19Zm-2-2.49V47.51A3.57,3.57,0,0,1,51,51.07H36.37A5.39,5.39,0,0,0,33,52.26V36.08l3.25-3.24a1,1,0,0,0,.73.32H39a1,1,0,1,0,0-2H37.91l14.7-14.7ZM22.88,43.37,18.14,45l1.67-4.74L21,39.16,24,42.23Zm2.55-2.56-3.06-3.06,11.7-11.7,3.06,3.06Zm26.9-33a2.17,2.17,0,0,1,3.07,3.07L38.55,27.7l-3.07-3.06ZM33,20a3.14,3.14,0,0,1,.89-2.36,3.68,3.68,0,0,1,2.67-1.15h4.27L33,24.3V20ZM9.43,16.46h18A3.57,3.57,0,0,1,31,20V26.3l-3.14,3.14H25.91a1,1,0,0,0-.05,2l-3.13,3.13H20a1,1,0,0,0,0,2h.77l-2.49,2.49a1,1,0,0,0-.24.37l-2.44,6.92a1,1,0,0,0,.24,1,1,1,0,0,0,1,.24l6.92-2.44a.91.91,0,0,0,.37-.24L31,38.08V52.26a5.39,5.39,0,0,0-3.38-1.19H13a3.57,3.57,0,0,1-3.56-3.56Zm-2,37.95A8.34,8.34,0,0,1,5,48.5V24.29A3.44,3.44,0,0,1,7.43,21V47.51A5.57,5.57,0,0,0,13,53.07H27.61A3.38,3.38,0,0,1,31,56.44a.91.91,0,0,0,.09.41H13.33A8.32,8.32,0,0,1,7.43,54.41ZM59,48.5a8.35,8.35,0,0,1-8.34,8.35H32.9a1.07,1.07,0,0,0,.09-.41,3.37,3.37,0,0,1,3.38-3.37H51a5.57,5.57,0,0,0,5.56-5.56V21A3.46,3.46,0,0,1,59,24.29Z"/><path d="M43,33.16h8a1,1,0,1,0,0-2H43a1,1,0,0,0,0,2Z"/><path d="M51,36.28H48.94a1,1,0,0,0,0,2H51a1,1,0,1,0,0-2Z"/><path d="M37,38.28h8a1,1,0,0,0,0-2H37a1,1,0,0,0,0,2Z"/><path d="M39,46.12H37a1,1,0,0,0,0,2H39a1,1,0,0,0,0-2Z"/><path d="M51,46.12H43a1,1,0,0,0,0,2h8a1,1,0,0,0,0-2Z"/><path d="M51,41H48.94a1,1,0,0,0,0,2H51a1,1,0,0,0,0-2Z"/><path d="M37,43h8a1,1,0,0,0,0-2H37a1,1,0,0,0,0,2Z"/><path d="M13.94,21.6H16a1,1,0,0,0,0-2H13.94a1,1,0,1,0,0,2Z"/><path d="M20,21.6h8a1,1,0,0,0,0-2H20a1,1,0,0,0,0,2Z"/><path d="M28,24.71H25.91a1,1,0,0,0,0,2H28a1,1,0,0,0,0-2Z"/><path d="M13.94,26.71h8a1,1,0,1,0,0-2h-8a1,1,0,1,0,0,2Z"/><path d="M13.94,36.56H16a1,1,0,0,0,0-2H13.94a1,1,0,1,0,0,2Z"/><path d="M13.94,31.44h8a1,1,0,0,0,0-2h-8a1,1,0,0,0,0,2Z"/><path d="M40.39,21.26a1,1,0,0,0,1.42,1.42l8.36-8.37a1,1,0,1,0-1.41-1.41Z"/></g><text x="0" y="79" fill="#000000" font-size="5px" font-weight="bold" font-family="'Helvetica Neue', Helvetica, Arial-Unicode, Arial, Sans-serif">Created by Lima Studio</text><text x="0" y="84" fill="#000000" font-size="5px" font-weight="bold" font-family="'Helvetica Neue', Helvetica, Arial-Unicode, Arial, Sans-serif">from the Noun Project</text></svg>