<svg xmlns="http://www.w3.org/2000/svg" xmlns:xlink="http://www.w3.org/1999/xlink" xmlns:serif="http://www.serif.com/" viewBox="0 0 692 543.75" version="1.1" xml:space="preserve" style="" x="0px" y="0px" fill-rule="evenodd" clip-rule="evenodd" stroke-linejoin="round" stroke-miterlimit="2"><g transform="matrix(1,0,0,1,-13459,-12000)"><path d="M14150.1,12434.9L14150.1,12414.1L14150.1,12000L13459.5,12000L13459.5,12434.9L14150.1,12434.9ZM14129.3,12020.9L13480.3,12020.9L13480.3,12414.1L14129.3,12414.1L14129.3,12020.9ZM13901.1,12345.5L13901.1,12382L13913.6,12382L13913.6,12345.5L13901.1,12345.5ZM14092.3,12332.2C14095.8,12332.2 14098.6,12335 14098.6,12338.5C14098.6,12341.9 14095.8,12344.7 14092.3,12344.7L13953.3,12344.7C13952.4,12344.7 13951.6,12344.6 13950.8,12344.2C13950,12343.9 13949.3,12343.4 13948.8,12342.8C13948.2,12342.2 13947.8,12341.6 13947.5,12340.8C13947.2,12340.2 13947.1,12339.5 13947.1,12338.8C13947,12338.1 13947.1,12337.4 13947.3,12336.7C13947.5,12336.2 13947.7,12335.6 13948.1,12335.1C13948.8,12334 13949.9,12333.1 13951.1,12332.6C13951.8,12332.4 13952.5,12332.2 13953.3,12332.2L13953.3,12332.2L14092.3,12332.2ZM13824.3,12332.2C13827.8,12332.2 13830.6,12335 13830.6,12338.5C13830.6,12341.9 13827.8,12344.7 13824.3,12344.7L13555.3,12344.7C13554.4,12344.7 13553.6,12344.6 13552.8,12344.2C13552,12343.9 13551.3,12343.4 13550.8,12342.8C13550.2,12342.2 13549.8,12341.6 13549.5,12340.8C13549.2,12340.2 13549.1,12339.5 13549.1,12338.8C13549,12338.1 13549.1,12337.4 13549.3,12336.7C13549.5,12336.2 13549.7,12335.6 13550.1,12335.1C13550.8,12334 13551.9,12333.1 13553.1,12332.6C13553.8,12332.4 13554.5,12332.2 13555.3,12332.2L13555.3,12332.2L13824.3,12332.2ZM13901.1,12287L13901.1,12323.5L13913.6,12323.5L13913.6,12287L13901.1,12287ZM14092.3,12296.2C14095.8,12296.2 14098.6,12299 14098.6,12302.5C14098.6,12305.9 14095.8,12308.7 14092.3,12308.7L13953.3,12308.7C13952.4,12308.7 13951.6,12308.6 13950.8,12308.2C13950,12307.9 13949.3,12307.4 13948.8,12306.8C13948.2,12306.2 13947.8,12305.6 13947.5,12304.8C13947.2,12304.2 13947.1,12303.5 13947.1,12302.8C13947,12302.1 13947.1,12301.4 13947.3,12300.7C13947.5,12300.2 13947.7,12299.6 13948.1,12299.1C13948.8,12298 13949.9,12297.1 13951.1,12296.6C13951.8,12296.4 13952.5,12296.2 13953.3,12296.2L13953.3,12296.2L14092.3,12296.2ZM13824.3,12296.2C13827.8,12296.2 13830.6,12299 13830.6,12302.5C13830.6,12305.9 13827.8,12308.7 13824.3,12308.7L13555.3,12308.7C13554.4,12308.7 13553.6,12308.6 13552.8,12308.2C13552,12307.9 13551.3,12307.4 13550.8,12306.8C13550.2,12306.2 13549.8,12305.6 13549.5,12304.8C13549.2,12304.2 13549.1,12303.5 13549.1,12302.8C13549,12302.1 13549.1,12301.4 13549.3,12300.7C13549.5,12300.2 13549.7,12299.6 13550.1,12299.1C13550.8,12298 13551.9,12297.1 13553.1,12296.6C13553.8,12296.4 13554.5,12296.2 13555.3,12296.2L13555.3,12296.2L13824.3,12296.2ZM14032.3,12260.2C14035.8,12260.2 14038.6,12263 14038.6,12266.5C14038.6,12269.9 14035.8,12272.7 14032.3,12272.7L13953.3,12272.7C13952.4,12272.7 13951.6,12272.6 13950.8,12272.2C13950,12271.9 13949.3,12271.4 13948.8,12270.8C13948.2,12270.2 13947.8,12269.6 13947.5,12268.8C13947.2,12268.2 13947.1,12267.5 13947.1,12266.8C13947,12266.1 13947.1,12265.4 13947.3,12264.7C13947.5,12264.2 13947.7,12263.6 13948.1,12263.1C13948.8,12262 13949.9,12261.1 13951.1,12260.6C13951.8,12260.4 13952.5,12260.2 13953.3,12260.2L13953.3,12260.2L14032.3,12260.2ZM13704.3,12260.2C13707.8,12260.2 13710.6,12263 13710.6,12266.5C13710.6,12269.9 13707.8,12272.7 13704.3,12272.7L13555.3,12272.7C13554.4,12272.7 13553.6,12272.6 13552.8,12272.2C13552,12271.9 13551.3,12271.4 13550.8,12270.8C13550.2,12270.2 13549.8,12269.6 13549.5,12268.8C13549.2,12268.2 13549.1,12267.5 13549.1,12266.8C13549,12266.1 13549.1,12265.4 13549.3,12264.7C13549.5,12264.2 13549.7,12263.6 13550.1,12263.1C13550.8,12262 13551.9,12261.1 13553.1,12260.6C13553.8,12260.4 13554.5,12260.2 13555.3,12260.2L13555.3,12260.2L13704.3,12260.2ZM13901.1,12228.5L13901.1,12265L13913.6,12265L13913.6,12228.5L13901.1,12228.5ZM13901.1,12170L13901.1,12206.5L13913.6,12206.5L13913.6,12170L13901.1,12170ZM13760.8,12168.7L13561.8,12168.7C13554.9,12168.7 13549.3,12163.1 13549.3,12156.2C13549.3,12156.2 13549.3,12156.2 13549.3,12156.2C13549.3,12150.8 13551,12145.8 13554,12141.6L13546.6,12132.9C13542.1,12127.7 13542.7,12119.8 13547.9,12115.3C13549.3,12114.2 13550.8,12113.2 13552.5,12112.5C13556.3,12110.8 13560.8,12110.5 13564.8,12111.7C13566.8,12112.3 13568.6,12113.2 13570.2,12114.4C13570.3,12114.4 13570.3,12114.4 13570.3,12114.4L13589.4,12128.3L13625.3,12122.8L13598.1,12092.8C13594.4,12088.6 13593.8,12082.4 13596.9,12077.6C13598.6,12075.1 13601.2,12073.2 13603.7,12071.7C13612.4,12066.8 13623.4,12067.3 13631.6,12072.9L13690,12112.7L13699.2,12111.3C13729.4,12106.7 13759,12122.6 13771.9,12150.3L13772.2,12151C13773.9,12154.9 13773.6,12159.4 13771.3,12163C13769,12166.6 13765.1,12168.7 13760.8,12168.7ZM14092.3,12156.2C14095.8,12156.2 14098.6,12159 14098.6,12162.5C14098.6,12165.9 14095.8,12168.7 14092.3,12168.7L13953.3,12168.7C13952.4,12168.7 13951.6,12168.6 13950.8,12168.2C13950,12167.9 13949.3,12167.4 13948.8,12166.8C13948.2,12166.2 13947.8,12165.6 13947.5,12164.8C13947.2,12164.2 13947.1,12163.5 13947.1,12162.8C13947,12162.1 13947.1,12161.4 13947.3,12160.7C13947.5,12160.2 13947.7,12159.6 13948.1,12159.1C13948.8,12158 13949.9,12157.1 13951.1,12156.6C13951.8,12156.4 13952.5,12156.2 13953.3,12156.2L13953.3,12156.2L14092.3,12156.2ZM13760.8,12156.2L13760.5,12155.6C13750,12132.9 13725.8,12119.9 13701.1,12123.7L13687.1,12125.9L13624.6,12083.2C13623.3,12082.4 13621.9,12081.7 13620.3,12081.3C13617.2,12080.4 13613.8,12080.7 13610.8,12082.1C13609.6,12082.7 13608.4,12083.5 13607.4,12084.4L13650.2,12131.6L13586.2,12141.5L13562.9,12124.6C13562.4,12124.2 13561.9,12123.9 13561.3,12123.7C13560,12123.3 13558.6,12123.4 13557.4,12123.9C13556.9,12124.2 13556.5,12124.5 13556.1,12124.8L13572.1,12143.6C13566.2,12144.8 13561.8,12150.1 13561.8,12156.2C13561.8,12156.2 13561.8,12156.2 13561.8,12156.2L13760.8,12156.2ZM13901.1,12111.5L13901.1,12148L13913.6,12148L13913.6,12111.5L13901.1,12111.5ZM14092.3,12120.2C14095.8,12120.2 14098.6,12123 14098.6,12126.5C14098.6,12129.9 14095.8,12132.7 14092.3,12132.7L13953.3,12132.7C13952.4,12132.7 13951.6,12132.6 13950.8,12132.2C13950,12131.9 13949.3,12131.4 13948.8,12130.8C13948.2,12130.2 13947.8,12129.6 13947.5,12128.8C13947.2,12128.2 13947.1,12127.5 13947.1,12126.8C13947,12126.1 13947.1,12125.4 13947.3,12124.7C13947.5,12124.2 13947.7,12123.6 13948.1,12123.1C13948.8,12122 13949.9,12121.1 13951.1,12120.6C13951.8,12120.4 13952.5,12120.2 13953.3,12120.2L13953.3,12120.2L14092.3,12120.2ZM14032.3,12084.2C14035.8,12084.2 14038.6,12087 14038.6,12090.5C14038.6,12093.9 14035.8,12096.7 14032.3,12096.7L13953.3,12096.7C13952.4,12096.7 13951.6,12096.6 13950.8,12096.2C13950,12095.9 13949.3,12095.4 13948.8,12094.8C13948.2,12094.2 13947.8,12093.6 13947.5,12092.8C13947.2,12092.2 13947.1,12091.5 13947.1,12090.8C13947,12090.1 13947.1,12089.4 13947.3,12088.7C13947.5,12088.2 13947.7,12087.6 13948.1,12087.1C13948.8,12086 13949.9,12085.1 13951.1,12084.6C13951.8,12084.4 13952.5,12084.2 13953.3,12084.2L13953.3,12084.2L14032.3,12084.2ZM13901.1,12053L13901.1,12089.5L13913.6,12089.5L13913.6,12053L13901.1,12053Z"/></g><text x="0" y="450" fill="#000000" font-size="5px" font-weight="bold" font-family="'Helvetica Neue', Helvetica, Arial-Unicode, Arial, Sans-serif">Created by alimasykurm</text><text x="0" y="455" fill="#000000" font-size="5px" font-weight="bold" font-family="'Helvetica Neue', Helvetica, Arial-Unicode, Arial, Sans-serif">from the Noun Project</text></svg>